<?xml version="1.0" encoding="UTF-8"?>
<svg version="1.1" xmlns="http://www.w3.org/2000/svg" width="148" height="97">
<path d="M0 0 C42.9 0 85.8 0 130 0 C130 32.01 130 64.02 130 97 C87.1 97 44.2 97 0 97 C0 64.99 0 32.98 0 0 Z M7 7 C7 34.39 7 61.78 7 90 C44.95 90 82.9 90 122 90 C122 62.61 122 35.22 122 7 C84.05 7 46.1 7 7 7 Z " fill="#004DA7" transform="translate(9,0)"/>
<path d="M0 0 C3.45658479 2.04573386 4.7785359 3.66780385 7 7 C8.33099866 13.04068621 8.2494854 17.60011985 5 23 C1.49402349 26.42046489 -1.29757172 27.26023332 -6.0625 27.4375 C-10.13990836 27.25383296 -12.84813129 26.76982402 -16 24 C-18.67348405 20.46718179 -19.82966412 17.42873299 -20 13 C-19.1490484 8.2578037 -17.88925142 4.9114827 -14.5 1.4375 C-9.60037092 -0.57484766 -5.22508098 -0.80447131 0 0 Z M-10.8125 7.125 C-12.51056927 9.806162 -12.8733144 11.83285993 -13 15 C-11.86220128 17.32731556 -10.83159286 19.16840714 -9 21 C-4.89569724 21.38910922 -4.89569724 21.38910922 -1.1875 19.875 C0.51056927 17.193838 0.8733144 15.16714007 1 12 C-0.13779872 9.67268444 -1.16840714 7.83159286 -3 6 C-7.10430276 5.61089078 -7.10430276 5.61089078 -10.8125 7.125 Z " fill="#004DA8" transform="translate(102,41)"/>
<path d="M0 0 C1.47919922 0.06960937 1.47919922 0.06960937 2.98828125 0.140625 C3.98214844 0.17671875 4.97601563 0.2128125 6 0.25 C7.13888672 0.31960937 7.13888672 0.31960937 8.30078125 0.390625 C9.30078125 3.390625 9.30078125 3.390625 8.36328125 5.578125 C8.01265625 6.17625 7.66203125 6.774375 7.30078125 7.390625 C5.65078125 7.390625 4.00078125 7.390625 2.30078125 7.390625 C1.64078125 9.040625 0.98078125 10.690625 0.30078125 12.390625 C2.61078125 12.390625 4.92078125 12.390625 7.30078125 12.390625 C7.30078125 14.370625 7.30078125 16.350625 7.30078125 18.390625 C4.99078125 18.390625 2.68078125 18.390625 0.30078125 18.390625 C0.30078125 25.320625 0.30078125 32.250625 0.30078125 39.390625 C-2.00921875 39.390625 -4.31921875 39.390625 -6.69921875 39.390625 C-6.69921875 32.460625 -6.69921875 25.530625 -6.69921875 18.390625 C-7.35921875 18.390625 -8.01921875 18.390625 -8.69921875 18.390625 C-8.69921875 16.410625 -8.69921875 14.430625 -8.69921875 12.390625 C-8.03921875 12.390625 -7.37921875 12.390625 -6.69921875 12.390625 C-6.59609375 11.153125 -6.49296875 9.915625 -6.38671875 8.640625 C-6.00838013 4.10056153 -4.87996372 0.70621762 0 0 Z " fill="#004DA8" transform="translate(46.69921875,28.609375)"/>
<path d="M0 0 C1.98 0 3.96 0 6 0 C7.81565436 1.81565436 7.12861899 4.31269962 7.13894653 6.72888184 C7.1369223 7.52991333 7.13489807 8.33094482 7.1328125 9.15625 C7.13376923 9.97371704 7.13472595 10.79118408 7.13571167 11.63342285 C7.13639345 13.36515378 7.13453929 15.09688724 7.13037109 16.82861328 C7.12502279 19.48866482 7.13031612 22.1485475 7.13671875 24.80859375 C7.13605797 26.48697954 7.1347768 28.16536523 7.1328125 29.84375 C7.13483673 30.64478149 7.13686096 31.44581299 7.13894653 32.27111816 C7.11495079 37.88504921 7.11495079 37.88504921 6 39 C4.02 39 2.04 39 0 39 C0 26.13 0 13.26 0 0 Z " fill="#004DA9" transform="translate(66,29)"/>
</svg>
